<svg width="48" height="48" viewBox="0 0 48 48" fill="none" xmlns="http://www.w3.org/2000/svg">
<path d="M21.092 4.87563C21.459 5.28303 21.9075 5.60877 22.4085 5.83173C22.9094 6.0547 23.4517 6.16991 24 6.16991C24.5483 6.16991 25.0906 6.0547 25.5915 5.83173C26.0925 5.60877 26.541 5.28303 26.908 4.87563L28.788 2.79363C29.3301 2.19272 30.0449 1.77442 30.8343 1.59619C31.6237 1.41797 32.449 1.48857 33.1966 1.79829C33.9443 2.10801 34.5777 2.64165 35.0099 3.3259C35.442 4.01015 35.6516 4.81142 35.61 5.61963L35.466 8.41963C35.4382 8.96724 35.5255 9.5146 35.7224 10.0263C35.9193 10.5381 36.2214 11.0028 36.6091 11.3905C36.9968 11.7783 37.4615 12.0803 37.9733 12.2772C38.485 12.4741 39.0324 12.5615 39.58 12.5336L42.38 12.3916C43.1872 12.3518 43.987 12.5627 44.6698 12.9952C45.3525 13.4278 45.8848 14.0609 46.1936 14.8078C46.5024 15.5547 46.5727 16.3788 46.3949 17.1672C46.217 17.9556 45.7996 18.6697 45.2 19.2116L43.116 21.0936C42.7094 21.4611 42.3844 21.9098 42.162 22.4107C41.9396 22.9116 41.8247 23.4536 41.8247 24.0016C41.8247 24.5497 41.9396 25.0916 42.162 25.5925C42.3844 26.0934 42.7094 26.5421 43.116 26.9096L45.2 28.7896C45.7997 29.3322 46.2169 30.047 46.3945 30.836C46.572 31.625 46.5012 32.4496 46.1917 33.1968C45.8822 33.9439 45.3491 34.5771 44.6657 35.0094C43.9822 35.4417 43.1817 35.6521 42.374 35.6116L39.574 35.4676C39.0266 35.4398 38.4794 35.5271 37.9678 35.7239C37.4562 35.9207 36.9915 36.2225 36.6039 36.61C36.2162 36.9975 35.9141 37.462 35.717 37.9735C35.52 38.485 35.4324 39.0322 35.46 39.5796L35.604 42.3796C35.6421 43.1857 35.4304 43.9838 34.998 44.6651C34.5656 45.3464 33.9335 45.8777 33.1879 46.1864C32.4423 46.4951 31.6197 46.5661 30.8322 46.3899C30.0447 46.2136 29.3309 45.7987 28.788 45.2016L26.908 43.1196C26.5405 42.7131 26.0918 42.3881 25.5909 42.1657C25.09 41.9432 24.5481 41.8283 24 41.8283C23.4519 41.8283 22.91 41.9432 22.4091 42.1657C21.9082 42.3881 21.4595 42.7131 21.092 43.1196L19.212 45.2016C18.67 45.7991 17.9567 46.2147 17.1696 46.3914C16.3825 46.5682 15.56 46.4976 14.8146 46.1892C14.0692 45.8808 13.4371 45.3497 13.005 44.6686C12.5728 43.9874 12.3615 43.1894 12.4 42.3836L12.544 39.5836C12.5722 39.035 12.4849 38.4865 12.2875 37.9738C12.0901 37.4611 11.7872 36.9956 11.3983 36.6075C11.0095 36.2194 10.5434 35.9174 10.0303 35.721C9.51723 35.5246 8.9686 35.4383 8.42 35.4676L5.62 35.6116C4.81279 35.6508 4.01322 35.4394 3.33075 35.0066C2.64828 34.5738 2.11626 33.9406 1.80754 33.1937C1.49881 32.4469 1.42846 31.6228 1.60612 30.8345C1.78378 30.0461 2.20077 29.3319 2.8 28.7896L4.884 26.9096C5.29056 26.5421 5.61555 26.0934 5.83797 25.5925C6.0604 25.0916 6.17532 24.5497 6.17532 24.0016C6.17532 23.4536 6.0604 22.9116 5.83797 22.4107C5.61555 21.9098 5.29056 21.4611 4.884 21.0936L2.8 19.2116C2.20444 18.669 1.79066 17.9559 1.61503 17.1696C1.4394 16.3833 1.51046 15.5619 1.81852 14.8174C2.12659 14.073 2.65669 13.4416 3.33659 13.0093C4.01649 12.577 4.81314 12.3648 5.618 12.4016L8.418 12.5436C8.96648 12.5719 9.51477 12.4845 10.0273 12.2873C10.5399 12.09 11.0053 11.7873 11.3934 11.3987C11.7814 11.01 12.0835 10.5442 12.28 10.0313C12.4765 9.51848 12.563 8.97007 12.534 8.42163L12.4 5.61963C12.3627 4.81433 12.5746 4.01711 13.007 3.33671C13.4394 2.65631 14.0711 2.12586 14.8161 1.81769C15.561 1.50952 16.3829 1.43865 17.1696 1.61473C17.9563 1.79082 18.6695 2.2053 19.212 2.80163L21.092 4.87563Z" stroke="black" stroke-width="3" stroke-linecap="round" stroke-linejoin="round"/>
<path d="M12 29.7016L15.032 24.3016L21.306 28.8656L26.428 21.0456L31.196 25.5016L36 18.0016" stroke="black" stroke-width="3" stroke-linecap="round" stroke-linejoin="round"/>
</svg>
