<svg width="12" height="12" viewBox="0 0 12 12" fill="none" xmlns="http://www.w3.org/2000/svg">
<path d="M2 10C1.725 10 1.48967 9.90217 1.294 9.7065C1.09833 9.51083 1.00033 9.27533 1 9V3C1 2.725 1.098 2.48967 1.294 2.294C1.49 2.09833 1.72533 2.00033 2 2H10C10.275 2 10.5105 2.098 10.7065 2.294C10.9025 2.49 11.0003 2.72533 11 3V9C11 9.275 10.9022 9.5105 10.7065 9.7065C10.5108 9.9025 10.2753 10.0003 10 10H2ZM6 6.4125C6.04167 6.4125 6.0855 6.40617 6.1315 6.3935C6.1775 6.38083 6.22117 6.36217 6.2625 6.3375L9.8 4.125C9.86667 4.08333 9.91667 4.03133 9.95 3.969C9.98333 3.90667 10 3.83783 10 3.7625C10 3.59583 9.92917 3.47083 9.7875 3.3875C9.64583 3.30417 9.5 3.30833 9.35 3.4L6 5.5L2.65 3.4C2.5 3.30833 2.35417 3.30633 2.2125 3.394C2.07083 3.48167 2 3.6045 2 3.7625C2 3.84583 2.01667 3.91883 2.05 3.9815C2.08333 4.04417 2.13333 4.092 2.2 4.125L5.7375 6.3375C5.77917 6.3625 5.823 6.38133 5.869 6.394C5.915 6.40667 5.95867 6.41283 6 6.4125Z" fill="white"/>
</svg>
