<svg width="12" height="12" viewBox="0 0 12 12" fill="none" xmlns="http://www.w3.org/2000/svg">
<g clip-path="url(#clip0_17_12)">
<path d="M24.0005 0C16.152 0 9.72 6.4128 9.72 14.2397C9.72 17.2723 10.6886 20.0909 12.3278 22.4074L22.2576 39.5736C23.6482 41.3904 24.5726 41.0453 25.729 39.4776L36.6816 20.8392C36.9024 20.4389 37.0762 20.0126 37.2274 19.5773C37.9221 17.8835 38.2795 16.0704 38.2795 14.2397C38.28 6.4128 31.8499 0 24.0005 0ZM24.0005 6.672C28.2274 6.672 31.5883 10.0253 31.5883 14.2397C31.5883 18.4541 28.2274 21.8064 24.0005 21.8064C19.7741 21.8064 16.4117 18.455 16.4117 14.2402C16.4117 10.0253 19.7741 6.67248 24 6.67248" fill="white"/>
</g>
<defs>
<clipPath id="clip0_17_12">
<rect width="48" height="48" fill="white"/>
</clipPath>
</defs>
</svg>
