<svg width="48" height="52" viewBox="0 0 48 52" fill="none" xmlns="http://www.w3.org/2000/svg">
<g filter="url(#filter0_d_18_24)">
<path d="M41.76 6.198C40.2933 4.73134 38.5287 3.99867 36.466 4H11.492C9.428 4 7.66334 4.73267 6.198 6.198C4.73134 7.66467 3.99867 9.42934 4 11.492V36.466C4 38.53 4.73267 40.2947 6.198 41.76C7.66467 43.2267 9.42934 43.9593 11.492 43.958H17.32C17.7 43.958 17.986 43.9447 18.178 43.918C18.4016 43.8738 18.6034 43.7546 18.75 43.58C18.9407 43.38 19.036 43.09 19.036 42.71L19.022 40.94C19.014 39.812 19.01 38.9187 19.01 38.26L18.41 38.364C18.03 38.4333 17.5493 38.464 16.968 38.456C16.3614 38.4444 15.7567 38.3835 15.16 38.274C14.5242 38.1587 13.9258 37.891 13.416 37.494C12.8809 37.0894 12.4818 36.5312 12.272 35.894L12.012 35.294C11.792 34.8212 11.5168 34.3761 11.192 33.968C10.8187 33.4827 10.4413 33.1533 10.06 32.98L9.88 32.85C9.75501 32.7595 9.64092 32.6548 9.54 32.538C9.44361 32.4295 9.36467 32.3067 9.306 32.174C9.254 32.0513 9.29734 31.9513 9.436 31.874C9.57467 31.794 9.82667 31.7547 10.192 31.756L10.712 31.836C11.0587 31.904 11.4873 32.1113 11.998 32.458C12.5141 32.8099 12.9453 33.2724 13.26 33.812C13.66 34.5213 14.1413 35.0633 14.704 35.438C15.268 35.8113 15.836 35.998 16.408 35.998C16.98 35.998 17.4747 35.9547 17.892 35.868C18.2962 35.7842 18.6889 35.6526 19.062 35.476C19.218 34.3147 19.6427 33.4213 20.336 32.796C19.4368 32.7071 18.5457 32.5507 17.67 32.328C16.8155 32.0936 15.9937 31.7529 15.224 31.314C14.4185 30.8755 13.707 30.2829 13.13 29.57C12.5753 28.8767 12.12 27.9667 11.764 26.84C11.4093 25.712 11.232 24.4107 11.232 22.936C11.232 20.8387 11.9167 19.052 13.286 17.576C12.646 15.9987 12.7067 14.2307 13.468 12.272C13.972 12.1147 14.718 12.2313 15.706 12.622C16.694 13.0127 17.418 13.346 17.878 13.622C18.338 13.902 18.7067 14.1367 18.984 14.326C20.6098 13.8727 22.2902 13.6452 23.978 13.65C25.6953 13.65 27.3607 13.8753 28.974 14.326L29.962 13.702C30.722 13.2457 31.5236 12.8627 32.356 12.558C33.2747 12.2113 33.9773 12.116 34.464 12.272C35.244 14.232 35.3127 16.0007 34.67 17.578C36.0407 19.0513 36.726 20.838 36.726 22.938C36.726 24.4127 36.548 25.7173 36.192 26.852C35.8373 27.988 35.378 28.8987 34.814 29.584C34.2252 30.2861 33.5111 30.8727 32.708 31.314C31.868 31.782 31.0527 32.12 30.262 32.328C29.3864 32.5514 28.4952 32.7085 27.596 32.798C28.496 33.578 28.9467 34.8087 28.948 36.49V42.71C28.948 43.0033 28.9913 43.2413 29.078 43.424C29.1185 43.5117 29.1761 43.5903 29.2476 43.6553C29.3191 43.7202 29.4029 43.7701 29.494 43.802C29.6847 43.8713 29.854 43.914 30.002 43.93C30.15 43.9487 30.362 43.9573 30.638 43.956H36.466C38.53 43.956 40.2947 43.2233 41.76 41.758C43.2253 40.2927 43.958 38.528 43.958 36.464V11.492C43.958 9.428 43.2267 7.66334 41.76 6.198Z" fill="white"/>
</g>
<defs>
<filter id="filter0_d_18_24" x="-4" y="0" width="56" height="56" filterUnits="userSpaceOnUse" color-interpolation-filters="sRGB">
<feFlood flood-opacity="0" result="BackgroundImageFix"/>
<feColorMatrix in="SourceAlpha" type="matrix" values="0 0 0 0 0 0 0 0 0 0 0 0 0 0 0 0 0 0 127 0" result="hardAlpha"/>
<feOffset dy="4"/>
<feGaussianBlur stdDeviation="2"/>
<feComposite in2="hardAlpha" operator="out"/>
<feColorMatrix type="matrix" values="0 0 0 0 0 0 0 0 0 0 0 0 0 0 0 0 0 0 0.25 0"/>
<feBlend mode="normal" in2="BackgroundImageFix" result="effect1_dropShadow_18_24"/>
<feBlend mode="normal" in="SourceGraphic" in2="effect1_dropShadow_18_24" result="shape"/>
</filter>
</defs>
</svg>
