<svg width="12" height="12" viewBox="0 0 12 12" fill="none" xmlns="http://www.w3.org/2000/svg">
<path d="M24 43.866C23.4627 43.8678 22.9325 43.7437 22.4519 43.5037C21.9712 43.2637 21.5534 42.9145 21.232 42.484L11.11 29C9.43523 26.6382 8.44216 23.8614 8.23939 20.9732C8.03663 18.085 8.63198 15.1967 9.96033 12.6241C11.2887 10.0515 13.2989 7.89368 15.7711 6.3867C18.2433 4.87971 21.0823 4.08156 23.9776 4.07954C26.8729 4.07752 29.713 4.8717 32.1873 6.37523C34.6616 7.87876 36.6748 10.0337 38.0068 12.6045C39.3387 15.1752 39.9381 18.0627 39.7394 20.9512C39.5407 23.8397 38.5515 26.6179 36.88 28.982L26.77 42.48C26.4488 42.9115 26.0309 43.2617 25.5498 43.5024C25.0688 43.7431 24.5379 43.8676 24 43.866ZM23.984 6.132C20.6033 6.11947 17.3391 7.36652 14.828 9.63C12.3084 11.8792 10.7026 14.9753 10.3154 18.3305C9.9283 21.6856 10.7868 25.0661 12.728 27.83L22.83 41.284C22.966 41.4653 23.1423 41.6125 23.3451 41.7139C23.5478 41.8152 23.7713 41.868 23.998 41.868C24.2253 41.8686 24.4497 41.8161 24.6531 41.7148C24.8566 41.6134 25.0336 41.4659 25.17 41.284L35.258 27.816C36.6344 25.8683 37.4805 23.596 37.713 21.2224C37.9456 18.8487 37.5566 16.4555 36.5844 14.2776C35.6122 12.0998 34.0902 10.2123 32.1678 8.80067C30.2455 7.38902 27.989 6.50174 25.62 6.226C25.077 6.16275 24.5307 6.13136 23.984 6.132Z" fill="white"/>
</svg>
