<svg width="48" height="48" viewBox="0 0 48 48" fill="none" xmlns="http://www.w3.org/2000/svg">
<path d="M39.18 31L35.54 28.4C36.14 26.24 36.18 23.9 35.54 21.56L39.18 19L36.28 14L32.22 15.84C30.64 14.24 28.64 13 26.3 12.42L25.9 8H20.1L19.7 12.42C17.36 13 15.36 14.24 13.78 15.84L9.72 14L6.82 19L10.46 21.56C9.82 23.9 9.86 26.24 10.46 28.4L6.82 31L9.72 36L13.78 34.14C15.36 35.72 17.36 36.92 19.7 37.54L20.1 42H25.9L26.3 37.54C28.64 36.92 30.64 35.72 32.22 34.14L36.28 36L39.18 31ZM27 6C27.54 6 28 6.4 28 6.92L28.36 11C29.88 11.56 31.24 12.38 32.46 13.36L36.16 11.62C36.62 11.38 37.2 11.54 37.48 12L41.48 19C41.76 19.42 41.6 20 41.16 20.3L37.82 22.64C38.08 24.24 38.06 25.82 37.82 27.36L41.16 29.7C41.6 30 41.76 30.58 41.48 31L37.48 38C37.2 38.42 36.62 38.58 36.16 38.34L32.46 36.62C31.24 37.6 29.88 38.4 28.36 39L28 43C28 43.58 27.54 44 27 44H19C18.7348 44 18.4804 43.8946 18.2929 43.7071C18.1054 43.5196 18 43.2652 18 43L17.64 39C16.12 38.4 14.76 37.6 13.54 36.62L9.84 38.34C9.38 38.58 8.8 38.42 8.52 38L4.52 31C4.24 30.58 4.4 30 4.84 29.7L8.18 27.36C7.94 25.82 7.92 24.24 8.18 22.64L4.84 20.3C4.4 20 4.24 19.42 4.52 19L8.52 12C8.8 11.54 9.38 11.38 9.84 11.62L13.54 13.36C14.76 12.38 16.12 11.56 17.64 11L18 6.92C18 6.4 18.46 6 19 6H27ZM23 18C24.8565 18 26.637 18.7375 27.9497 20.0503C29.2625 21.363 30 23.1435 30 25C30 26.8565 29.2625 28.637 27.9497 29.9497C26.637 31.2625 24.8565 32 23 32C21.1435 32 19.363 31.2625 18.0503 29.9497C16.7375 28.637 16 26.8565 16 25C16 23.1435 16.7375 21.363 18.0503 20.0503C19.363 18.7375 21.1435 18 23 18ZM23 20C21.6739 20 20.4021 20.5268 19.4645 21.4645C18.5268 22.4021 18 23.6739 18 25C18 26.3261 18.5268 27.5979 19.4645 28.5355C20.4021 29.4732 21.6739 30 23 30C24.3261 30 25.5979 29.4732 26.5355 28.5355C27.4732 27.5979 28 26.3261 28 25C28 23.6739 27.4732 22.4021 26.5355 21.4645C25.5979 20.5268 24.3261 20 23 20Z" fill="black"/>
</svg>
