<svg width="48" height="48" viewBox="0 0 48 48" fill="none" xmlns="http://www.w3.org/2000/svg">
<path d="M16.5 46.5H37.5M22.5 10.5H43.5C44.2956 10.5 45.0587 10.8161 45.6213 11.3787C46.1839 11.9413 46.5 12.7044 46.5 13.5V34.5C46.5 35.2956 46.1839 36.0587 45.6213 36.6213C45.0587 37.1839 44.2956 37.5 43.5 37.5H10.5C9.70435 37.5 8.94129 37.1839 8.37868 36.6213C7.81607 36.0587 7.5 35.2956 7.5 34.5V31.5H46.5M33 46.5H21L22.5 37.5H31.5L33 46.5Z" stroke="black" stroke-width="3" stroke-linecap="round" stroke-linejoin="round"/>
<path d="M1.5 19.5H16.5M4.5 1.5H13.5C13.5 1.5 16.5 1.5 16.5 4.5V22.5C16.5 22.5 16.5 25.5 13.5 25.5H4.5C4.5 25.5 1.5 25.5 1.5 22.5V4.5C1.5 4.5 1.5 1.5 4.5 1.5Z" stroke="black" stroke-width="3" stroke-linecap="round" stroke-linejoin="round"/>
</svg>
